<svg id="Layer_1" data-name="Layer 1" xmlns="http://www.w3.org/2000/svg" viewBox="0 0 56.24 58.76"><path d="M109-54.79,81.43-68.56a.59.59,0,0,0-.52,0L53.37-54.79a.58.58,0,0,0-.32.52V-24.2a.55.55,0,0,0,.32.51L80.91-9.92a.59.59,0,0,0,.26.07l.18,0L109-23.69a.55.55,0,0,0,.32-.51V-54.27A.58.58,0,0,0,109-54.79Zm-1.49.54L81.17-41.14l-9.45-4.73L97.18-59.4ZM63.71-39.49a.56.56,0,0,0,.27.35.58.58,0,0,0,.43.06l2.92-.8L70-36.29a.59.59,0,0,0,.45.23h0l.19,0a.58.58,0,0,0,.39-.55v-8.28l9.56,4.78v28.78L54.2-24.56V-53.33l9.49,4.74v9Zm6.18,1.12L68.08-40.8a.87.87,0,0,0-.67-.28h0l-2.56.69V-48l5,2.52ZM65.51-49,91-62.5,95.92-60,70.45-46.5Zm-10.6-5.3L81.17-67.4l8.55,4.27L64.25-49.6ZM81.75-11.36V-40.13l26.39-13.16v28.73Z" transform="translate(-53.05 68.62)"/></svg>