<?xml version="1.0" encoding="utf-8"?>
<!-- Generator: Adobe Illustrator 25.4.1, SVG Export Plug-In . SVG Version: 6.00 Build 0)  -->
<svg version="1.1" id="Layer_1" xmlns="http://www.w3.org/2000/svg" xmlns:xlink="http://www.w3.org/1999/xlink" x="0px" y="0px"
	 viewBox="0 0 58.4 50" style="enable-background:new 0 0 58.4 50;" xml:space="preserve">
<g>
	<polygon points="12.6,21.8 12.6,21.8 12.5,21.8 	"/>
	<path d="M58.2,14.4l-8.1-8.8c0-0.1-0.1-0.1-0.2-0.1L39.9,0.1C39.8,0,39.7,0,39.6,0H18.8c-0.1,0-0.2,0-0.3,0.1L8.4,5.5
		c-0.1,0-0.1,0.1-0.2,0.1l-8.1,8.8c-0.2,0.2-0.2,0.6,0,0.8l28.6,34.5c0.1,0.1,0.3,0.2,0.5,0.2c0.2,0,0.4-0.1,0.5-0.2l28.6-34.5
		C58.4,15,58.4,14.6,58.2,14.4z M43.3,23.3l11.9-6.4L30.7,46.5L43.3,23.3z M56.8,14.6l-13.5,7.3c-0.6-2.2-2.4-8.9-2.9-10.8l9.3-4.3
		L56.8,14.6z M8.8,6.8l6.6,3.1c0.1,0,0.2,0.1,0.3,0.1l0,0c0.2,0,0.5-0.1,0.6-0.4c0.1-0.3,0-0.7-0.3-0.8L10.1,6L19,1.2h20.4L48.3,6
		l-9,4.2c-0.3,0.1-0.4,0.4-0.3,0.7c0,0,2.7,10.1,3.2,11.8l-13,24L16.6,23.5h22.9c0.3,0,0.6-0.3,0.6-0.6s-0.3-0.6-0.6-0.6H16.4
		l2.9-10.8h17.3c0.3,0,0.6-0.3,0.6-0.6s-0.3-0.6-0.6-0.6H18.8c-0.3,0-0.5,0.2-0.6,0.5l-3.3,12.1c0,0.2,0,0.3,0.1,0.5l12.7,23.4
		L3.2,16.9l9.1,4.9c0.1,0,0.2,0.1,0.3,0.1c0.2,0,0.4-0.1,0.5-0.3c0.2-0.3,0.1-0.7-0.3-0.8l-11.2-6L8.8,6.8z"/>
</g>
</svg>
