<svg width="64" height="64" viewBox="0 0 64 64" fill="none" xmlns="http://www.w3.org/2000/svg">
<g id="Vision">
<rect width="64" height="64" rx="8" fill="#201E1A"/>
<g id="Page-1">
<g id="Artboard">
<g id="message-left">
<path id="Shape" fill-rule="evenodd" clip-rule="evenodd" d="M19.1998 49.6005C18.3998 49.6005 17.5998 49.4003 17.2002 48.7998C16.6003 48.2 16.2 47.4001 16.2 46.6001V43.4002C16.2 42.8004 15.7997 42.4001 15.1999 42.4001H14.9997C13.3998 42.4001 12 41.0003 12 39.4003V16.9991C12 15.3998 13.2003 14 14.9997 14H49.0003C50.6002 14 52 15.3998 52 16.9997V39.4003C52 41.0003 50.6002 42.4001 49.0003 42.4001H28.0001C27.8 42.4001 27.4003 42.6002 27.1995 42.6002L21.2 48.6003C20.7997 49.2002 19.9997 49.6005 19.1998 49.6005ZM14.9997 16.0003C14.3999 16.0003 14.0003 16.4006 14.0003 16.9997V39.4003C14.0003 40.0001 14.4006 40.4004 14.9997 40.4004H15.1999C16.7998 40.4004 18.2003 41.8002 18.2003 43.4002V46.6001C18.2003 47.0004 18.3998 47.1999 18.6006 47.4007C19.0003 47.8004 19.3999 48.0005 19.9997 47.4007L25.9999 41.3999C26.6003 40.8001 27.4003 40.5999 28.2003 40.5999H49.2004C49.8002 40.5999 50.2006 40.1996 50.2006 39.6005V16.9991C50.0004 16.3993 49.3999 15.9996 49.0003 15.9996H14.9997V16.0003Z" fill="white"/>
<path id="Shape_2" fill-rule="evenodd" clip-rule="evenodd" d="M35.2 22.9999H22.0001C21.4003 22.9999 21 22.5995 21 21.9997C21 21.3999 21.4003 21.0002 22.0001 21.0002H35.4008C36 21.0002 36.4003 21.4006 36.4003 21.9997C36.4003 22.6002 35.8005 22.9999 35.2 22.9999Z" fill="white"/>
<path id="Shape_3" fill-rule="evenodd" clip-rule="evenodd" d="M38.6001 27.0004H22.0001C21.4003 27.0004 21 26.6001 21 26.0003C21 25.3998 21.4003 25.0001 22.0001 25.0001H38.6001C39.2006 25.0001 39.6002 25.4004 39.6002 26.0003C39.6002 26.6001 39.1999 27.0004 38.6001 27.0004Z" fill="white"/>
<path id="Shape_4" fill-rule="evenodd" clip-rule="evenodd" d="M42.0001 31.0003H22.0001C21.4003 31.0003 21 30.5999 21 30.0001C21 29.4003 21.4003 29 22.0001 29H42.0001C42.6006 29 43.0003 29.4003 43.0003 30.0001C43.0003 30.5999 42.4004 31.0003 42.0001 31.0003Z" fill="white"/>
<path id="Shape_5" fill-rule="evenodd" clip-rule="evenodd" d="M32.0001 35.0001H22.0001C21.4003 35.0001 21 34.5998 21 34C21 33.4002 21.4003 32.9999 22.0001 32.9999H32.0001C32.5999 32.9999 33.0003 33.4002 33.0003 34C33.0003 34.5998 32.4004 35.0001 32.0001 35.0001Z" fill="white"/>
</g>
</g>
</g>
<rect x="0.5" y="0.5" width="63" height="63" rx="7.5" stroke="white" stroke-opacity="0.2"/>
</g>
</svg>
