<svg id="Layer_1" data-name="Layer 1" xmlns="http://www.w3.org/2000/svg" viewBox="0 0 67.07 62.07"><path d="M23.39,42.39H43.46a.66.66,0,0,0,.65-.66.61.61,0,0,0-.2-.45.57.57,0,0,0-.45-.19H23.38a.65.65,0,0,0-.64.65.63.63,0,0,0,.19.46A.64.64,0,0,0,23.39,42.39Z" transform="translate(-0.05 -0.05)"/><path d="M43.46,45.17H23.38a.66.66,0,0,0-.64.65.65.65,0,0,0,.65.65H43.46a.65.65,0,0,0,0-1.3Z" transform="translate(-0.05 -0.05)"/><path d="M37.82,49.26H29a.65.65,0,0,0,0,1.3h8.8a.65.65,0,0,0,.46-1.11A.64.64,0,0,0,37.82,49.26Z" transform="translate(-0.05 -0.05)"/><path d="M4,31l.07,0,.13-.08L7.94,27.3a.68.68,0,0,0,.19-.44.66.66,0,0,0-.64-.67h0a.67.67,0,0,0-.45.18l-2.6,2.52A29,29,0,0,1,61.76,24l0,.19a.63.63,0,0,0,.34.36.67.67,0,0,0,.5,0,.65.65,0,0,0,.36-.35.55.55,0,0,0,0-.43A30.14,30.14,0,0,0,33.49.05h-.07A30.37,30.37,0,0,0,3.14,28.67L1.19,26.39a.62.62,0,0,0-.49-.23h0a.64.64,0,0,0-.38.15.61.61,0,0,0-.24.43.63.63,0,0,0,.15.49l3,3.52.12.14a.67.67,0,0,0,.42.16h.06L4,31Z" transform="translate(-0.05 -0.05)"/><path d="M67,34.93l-3-3.52-.13-.14a.6.6,0,0,0-.42-.16h0l-.11,0-.06,0-.14.07a.53.53,0,0,0-.1.06l-3.71,3.57a.63.63,0,0,0-.19.44.65.65,0,0,0,.63.67h0a.65.65,0,0,0,.44-.18l2.61-2.52a29,29,0,0,1-9.68,20.17V27.22h0a.61.61,0,0,0-.08-.3s0,0,0,0l-3.12-5.27a.65.65,0,0,0-.56-.33H17.53a.67.67,0,0,0-.55.32l-3.12,5.28a0,0,0,0,1,0,0,.74.74,0,0,0-.08.29h0V52.93A28.92,28.92,0,0,1,5.42,38.14l0-.19A.72.72,0,0,0,5,37.59a.64.64,0,0,0-.49,0,.65.65,0,0,0-.36.35.55.55,0,0,0,0,.43A30.14,30.14,0,0,0,33.69,62.11h.07A30.35,30.35,0,0,0,64,33.49l2,2.29a.64.64,0,0,0,.49.22h0a.77.77,0,0,0,.39-.14.65.65,0,0,0,.24-.44A.67.67,0,0,0,67,34.93ZM33.42,22.58H48.93l2.35,4H15.56l2.35-4ZM31,27.86h4.87V33l-2.2-.86a.55.55,0,0,0-.47,0L31,33Zm-1.3,0V34l0,.2a.65.65,0,0,0,.85.38l2.84-1.13,2.86,1.13.15,0h.07l.07,0v0a.65.65,0,0,0,.59-.65V27.86H51.77V54.28c0,.09,0,.17,0,.24a29.07,29.07,0,0,1-36.71-.46V27.86Z" transform="translate(-0.05 -0.05)"/></svg>