<svg width="64" height="64" viewBox="0 0 64 64" fill="none" xmlns="http://www.w3.org/2000/svg">
<g id="Vision">
<rect width="64" height="64" rx="8" fill="#201E1A"/>
<path id="Vector" d="M12.0762 26.8433C12.0858 26.8814 12.1143 26.9004 12.1334 26.9385C12.1715 27.0052 12.2001 27.0719 12.2477 27.1291L31.3044 48.0915C31.314 48.1105 31.3425 48.1105 31.3521 48.1296C31.4188 48.1963 31.495 48.2439 31.5712 48.2916C31.5998 48.3106 31.6284 48.3202 31.657 48.3392C31.7713 48.3678 31.8857 48.3964 32.0095 48.3964C32.1334 48.3964 32.2477 48.3678 32.3525 48.3202C32.3811 48.3106 32.4097 48.2916 32.4383 48.2725C32.5241 48.2344 32.5908 48.1772 32.6575 48.1105C32.6765 48.0915 32.6956 48.0915 32.7051 48.0724L51.7618 27.1101C51.8094 27.0529 51.8475 26.9862 51.8761 26.9195C51.8952 26.8909 51.9238 26.8623 51.9333 26.8242C51.9809 26.7099 52 26.5955 52 26.4812C52 26.4717 52 26.4717 52 26.4717C52 26.4431 51.9905 26.4145 51.9809 26.3859C51.9714 26.3001 51.9619 26.2144 51.9333 26.1382C51.9142 26.0905 51.8857 26.0524 51.8571 26.0048C51.8285 25.9667 51.819 25.919 51.7904 25.8714L44.1677 16.343C44.1582 16.3335 44.1391 16.324 44.1296 16.3144C44.0724 16.2477 43.9962 16.2001 43.92 16.1525C43.8818 16.1239 43.8437 16.0953 43.8056 16.0762C43.7961 16.0667 43.7866 16.0572 43.777 16.0572C43.6818 16.0191 43.596 16.0095 43.5007 16.0095C43.4912 16.0191 43.4721 16 43.4435 16H20.5755C20.5469 16 20.5183 16.0191 20.4898 16.0191C20.404 16.0286 20.3087 16.0286 20.223 16.0667C20.2134 16.0667 20.2039 16.0858 20.1944 16.0858C20.1467 16.1048 20.1182 16.1334 20.08 16.162C20.0038 16.2096 19.9276 16.2573 19.8704 16.324C19.8609 16.3335 19.8418 16.343 19.8323 16.3525L12.2096 25.8809C12.181 25.919 12.162 25.9667 12.1429 26.0143C12.1143 26.0619 12.0858 26.1 12.0667 26.1477C12.0381 26.2334 12.0191 26.3097 12.0191 26.3954C12.0095 26.424 12 26.4526 12 26.4812C12 26.4907 12 26.4907 12 26.4907C12 26.6146 12.0286 26.7289 12.0762 26.8433ZM15.1062 27.434H23.7199L29.4655 43.2225L15.1062 27.434ZM32.0095 44.6517L25.7494 27.434H38.2697L32.0095 44.6517ZM34.5536 43.2225L40.2992 27.434H48.9128L34.5536 43.2225ZM43.7199 18.8204L49.0843 25.5283H41.0424L43.7199 18.8204ZM42.0333 17.9057L39.3559 24.6136L33.9914 17.9057H42.0333ZM37.6503 25.5283H26.3687L32.0095 18.4774L37.6503 25.5283ZM30.0276 17.9057L24.6632 24.6136L21.9857 17.9057H30.0276ZM20.2992 18.8204L22.9767 25.5283H14.9347L20.2992 18.8204Z" fill="white"/>
<rect x="0.5" y="0.5" width="63" height="63" rx="7.5" stroke="white" stroke-opacity="0.2"/>
</g>
</svg>
