<svg width="64" height="64" viewBox="0 0 64 64" fill="none" xmlns="http://www.w3.org/2000/svg">
<g id="Vision">
<rect width="64" height="64" rx="8" fill="#201E1A"/>
<g id="Layer 2">
<path id="Vector" d="M47.8658 23.4286H39.2944V19.1429C39.2944 17.2485 38.5418 15.4316 37.2023 14.0921C35.8627 12.7525 34.0459 12 32.1515 12C30.2571 12 28.4403 12.7525 27.1008 14.0921C25.7612 15.4316 25.0087 17.2485 25.0087 19.1429V23.4286H16.4372C16.2357 23.4273 16.0361 23.4688 15.8517 23.5502C15.6672 23.6316 15.5021 23.7511 15.3672 23.9009C15.2323 24.0507 15.1306 24.2273 15.0688 24.4192C15.007 24.6111 14.9865 24.8139 15.0087 25.0143L17.8658 50.7285C17.9047 51.0796 18.0721 51.4038 18.336 51.6386C18.5998 51.8734 18.9412 52.0021 19.2944 52H45.0087C45.3618 52.0021 45.7033 51.8734 45.9671 51.6386C46.2309 51.4038 46.3984 51.0796 46.4372 50.7285L49.2944 25.0143C49.3165 24.8139 49.2961 24.6111 49.2343 24.4192C49.1725 24.2273 49.0708 24.0507 48.9358 23.9009C48.8009 23.7511 48.6358 23.6316 48.4514 23.5502C48.2669 23.4688 48.0674 23.4273 47.8658 23.4286ZM27.8658 19.1429C27.8658 18.0062 28.3173 16.9161 29.1211 16.1124C29.9248 15.3087 31.0149 14.8571 32.1515 14.8571C33.2882 14.8571 34.3782 15.3087 35.182 16.1124C35.9857 16.9161 36.4372 18.0062 36.4372 19.1429V23.4286H27.8658V19.1429ZM43.7229 49.1428H20.5801L18.0372 26.2857H46.2658L43.7229 49.1428Z" fill="white"/>
<path id="Vector_2" d="M36.0797 31.7571C35.3205 31.2533 34.4719 30.8993 33.5797 30.7143V29.1429C33.5797 28.764 33.4292 28.4006 33.1613 28.1327C32.8934 27.8648 32.53 27.7143 32.1511 27.7143C31.7722 27.7143 31.4089 27.8648 31.141 28.1327C30.8731 28.4006 30.7225 28.764 30.7225 29.1429V30.7143C29.8303 30.8993 28.9817 31.2533 28.2225 31.7571L27.1083 30.6429C26.835 30.4088 26.4834 30.2865 26.1239 30.3004C25.7644 30.3143 25.4233 30.4634 25.1689 30.7178C24.9145 30.9722 24.7654 31.3132 24.7515 31.6728C24.7376 32.0323 24.8599 32.3839 25.094 32.6571L26.2083 33.7714C25.6977 34.5338 25.3387 35.3875 25.1511 36.2857H23.5797C23.2008 36.2857 22.8375 36.4362 22.5695 36.7041C22.3016 36.972 22.1511 37.3354 22.1511 37.7143C22.1511 38.0932 22.3016 38.4565 22.5695 38.7244C22.8375 38.9923 23.2008 39.1429 23.5797 39.1429H25.1511C25.3361 40.0351 25.6901 40.8837 26.194 41.6429L25.0797 42.7571C24.9301 42.8852 24.8087 43.0428 24.7229 43.22C24.6372 43.3973 24.589 43.5903 24.5814 43.7871C24.5738 43.9838 24.607 44.18 24.6788 44.3633C24.7506 44.5466 24.8595 44.7131 24.9988 44.8524C25.138 44.9916 25.3045 45.1005 25.4878 45.1723C25.6711 45.2442 25.8673 45.2773 26.0641 45.2697C26.2608 45.2621 26.4538 45.2139 26.6311 45.1282C26.8083 45.0424 26.9659 44.921 27.094 44.7714L28.2083 43.6571C28.9707 44.1677 29.8243 44.5267 30.7225 44.7143V46.2857C30.7225 46.6646 30.8731 47.028 31.141 47.2959C31.4089 47.5638 31.7722 47.7143 32.1511 47.7143C32.53 47.7143 32.8934 47.5638 33.1613 47.2959C33.4292 47.028 33.5797 46.6646 33.5797 46.2857V44.7143C34.4719 44.5293 35.3205 44.1753 36.0797 43.6714L37.194 44.7857C37.4673 45.0198 37.8188 45.142 38.1783 45.1282C38.5379 45.1143 38.8789 44.9652 39.1333 44.7108C39.3878 44.4564 39.5368 44.1153 39.5507 43.7558C39.5646 43.3963 39.4423 43.0447 39.2083 42.7714L38.094 41.6571C38.6046 40.8947 38.9635 40.0411 39.1511 39.1429H40.7225C41.1014 39.1429 41.4648 38.9923 41.7327 38.7244C42.0006 38.4565 42.1511 38.0932 42.1511 37.7143C42.1511 37.3354 42.0006 36.972 41.7327 36.7041C41.4648 36.4362 41.1014 36.2857 40.7225 36.2857H39.1511C38.9661 35.3935 38.6122 34.5449 38.1083 33.7857L39.2225 32.6714C39.4566 32.3981 39.5789 32.0466 39.565 31.6871C39.5511 31.3275 39.4021 30.9865 39.1476 30.7321C38.8932 30.4776 38.5522 30.3286 38.1926 30.3147C37.8331 30.3008 37.4815 30.4231 37.2083 30.6572L36.0797 31.7571ZM32.1511 42C31.3035 42 30.4749 41.7486 29.7701 41.2777C29.0653 40.8068 28.516 40.1375 28.1916 39.3544C27.8673 38.5712 27.7824 37.7095 27.9478 36.8782C28.1131 36.0468 28.5213 35.2832 29.1207 34.6838C29.72 34.0845 30.4837 33.6763 31.315 33.5109C32.1464 33.3456 33.0081 33.4304 33.7912 33.7548C34.5743 34.0792 35.2436 34.6285 35.7146 35.3333C36.1855 36.0381 36.4368 36.8667 36.4368 37.7143C36.4368 38.8509 35.9853 39.941 35.1816 40.7447C34.3778 41.5485 33.2878 42 32.1511 42Z" fill="white"/>
</g>
<rect x="0.5" y="0.5" width="63" height="63" rx="7.5" stroke="white" stroke-opacity="0.2"/>
</g>
</svg>
