<svg width="64" height="64" viewBox="0 0 64 64" fill="none" xmlns="http://www.w3.org/2000/svg">
<g id="Vision">
<rect width="64" height="64" rx="8" fill="#201E1A"/>
<g id="Group 62">
<path id="Vector" d="M51.7109 31.9676C51.3484 31.5931 42.7225 22.7884 31.8809 22.7884C21.0392 22.7884 12.4133 31.5931 12.0509 31.9676C11.9417 32.0807 11.8807 32.2318 11.8809 32.389C11.881 32.5462 11.9421 32.6971 12.0515 32.8101C12.4133 33.1846 21.0392 41.982 31.8809 41.982C31.8887 41.982 31.8948 41.9778 31.9027 41.9778C37.185 41.9687 41.4795 37.6694 41.4795 32.3852C41.4795 30.218 40.7741 28.1732 39.4401 26.4708C39.341 26.3443 39.1956 26.2623 39.036 26.243C38.8765 26.2237 38.7157 26.2686 38.5892 26.3677C38.4627 26.4669 38.3808 26.6123 38.3615 26.7718C38.3422 26.9314 38.387 27.0921 38.4862 27.2186C39.6464 28.6903 40.2742 30.5113 40.2674 32.3852C40.2674 37.0064 36.5075 40.7663 31.8863 40.7663C27.2591 40.7663 23.4943 37.0064 23.4943 32.3852C23.4943 27.7641 27.2591 24.0035 31.8863 24.0035C33.4251 24.0035 34.9293 24.4241 36.2378 25.2199C36.3057 25.2613 36.3812 25.289 36.4598 25.3012C36.5385 25.3135 36.6188 25.3101 36.6961 25.2913C36.7734 25.2725 36.8463 25.2387 36.9106 25.1917C36.9748 25.1447 37.0291 25.0855 37.0705 25.0174C37.1217 24.9284 37.1488 24.8275 37.1493 24.7247C43.7449 26.492 48.9158 30.9895 50.4048 32.3882C49.0479 33.6652 44.6322 37.5239 38.8856 39.5209C38.7337 39.5736 38.609 39.6845 38.5389 39.8292C38.4687 39.9739 38.459 40.1405 38.5117 40.2924C38.5644 40.4443 38.6753 40.569 38.82 40.6391C38.9647 40.7093 39.1313 40.719 39.2832 40.6663C46.4806 38.1651 51.5 33.0276 51.7103 32.8101C51.8196 32.6971 51.8807 32.5462 51.8809 32.389C51.881 32.2318 51.82 32.0807 51.7109 31.9676ZM22.2822 32.3852C22.2822 35.3828 23.667 38.0609 25.8294 39.8215C19.6101 37.9257 14.7866 33.7307 13.3569 32.3876C14.7854 31.0434 19.6059 26.8429 25.8306 24.9471C23.6676 26.7083 22.2822 29.3871 22.2822 32.3852Z" fill="white"/>
<path id="Vector_2" d="M31.8809 35.7579C31.2327 35.757 30.5985 35.57 30.0535 35.2193C29.5085 34.8685 29.0757 34.3687 28.8064 33.7792C28.7376 33.6365 28.6156 33.5265 28.4667 33.4726C28.3178 33.4187 28.1537 33.4252 28.0095 33.4908C27.8654 33.5564 27.7526 33.6758 27.6954 33.8235C27.6382 33.9712 27.641 34.1354 27.7033 34.281C28.0694 35.0821 28.6576 35.7613 29.3982 36.2379C30.1388 36.7146 31.0007 36.9687 31.8815 36.97C34.4111 36.97 36.4693 34.9119 36.4693 32.3822C36.4693 30.1513 34.8117 28.2101 32.6233 27.8653L32.6021 27.8617C32.364 27.8207 32.123 27.8003 31.8815 27.8005C30.7472 27.7982 29.6525 28.2168 28.809 28.9751C27.9656 29.7335 27.4334 30.7777 27.3155 31.9058C27.3019 32.0323 27.3285 32.1597 27.3915 32.2701C27.4545 32.3806 27.5507 32.4683 27.6664 32.521C28.1688 32.7501 28.7106 32.8664 29.2754 32.8664C30.2573 32.8661 31.2027 32.4948 31.9223 31.8269C32.642 31.159 33.0826 30.2438 33.156 29.2647C34.3936 29.7707 35.2572 31.001 35.2572 32.3816C35.2561 33.2767 34.9 34.1348 34.267 34.7678C33.6341 35.4007 32.776 35.7568 31.8809 35.7579ZM29.2748 31.6549C29.0433 31.6549 28.8179 31.6271 28.6015 31.5713C28.7879 30.8283 29.2211 30.1706 29.83 29.7058C30.439 29.2411 31.1877 28.9969 31.9536 29.0132C31.9439 29.7172 31.6574 30.3891 31.156 30.8835C30.6547 31.3779 29.9789 31.655 29.2748 31.6549Z" fill="white"/>
<path id="Vector_3" d="M31.881 19.9557C32.0417 19.9557 32.1958 19.8918 32.3095 19.7782C32.4232 19.6645 32.487 19.5104 32.487 19.3496V16.6061C32.487 16.4453 32.4232 16.2912 32.3095 16.1775C32.1958 16.0639 32.0417 16 31.881 16C31.7202 16 31.5661 16.0639 31.4524 16.1775C31.3388 16.2912 31.2749 16.4453 31.2749 16.6061V19.3496C31.2749 19.5104 31.3388 19.6645 31.4524 19.7782C31.5661 19.8918 31.7202 19.9557 31.881 19.9557Z" fill="white"/>
<path id="Vector_4" d="M24.8378 21.3993C24.8773 21.4688 24.9301 21.5298 24.9933 21.5787C25.0565 21.6277 25.1287 21.6637 25.2058 21.6846C25.283 21.7056 25.3635 21.7111 25.4427 21.7008C25.522 21.6905 25.5984 21.6646 25.6677 21.6246C25.7369 21.5846 25.7975 21.5314 25.8461 21.4679C25.8946 21.4044 25.9301 21.3319 25.9505 21.2547C25.971 21.1774 25.9759 21.0968 25.9651 21.0177C25.9543 20.9385 25.9279 20.8622 25.8875 20.7933L24.516 18.4175C24.4765 18.348 24.4236 18.2871 24.3604 18.2381C24.2973 18.1891 24.225 18.1531 24.1479 18.1322C24.0708 18.1113 23.9903 18.1058 23.911 18.1161C23.8317 18.1264 23.7553 18.1523 23.6861 18.1922C23.6169 18.2322 23.5562 18.2854 23.5077 18.3489C23.4591 18.4124 23.4236 18.4849 23.4032 18.5622C23.3828 18.6394 23.3778 18.72 23.3886 18.7992C23.3995 18.8784 23.4259 18.9546 23.4663 19.0236L24.8378 21.3993Z" fill="white"/>
<path id="Vector_5" d="M25.6658 43.1493C25.5969 43.1094 25.5208 43.0835 25.4419 43.0731C25.3629 43.0627 25.2827 43.0679 25.2058 43.0885C25.1289 43.1091 25.0569 43.1447 24.9937 43.1932C24.9306 43.2417 24.8776 43.3021 24.8379 43.3711L23.4664 45.7468C23.3873 45.8859 23.3664 46.0507 23.4084 46.2052C23.4503 46.3596 23.5516 46.4912 23.6902 46.5712C23.8288 46.6512 23.9934 46.6732 24.1482 46.6323C24.3029 46.5914 24.4352 46.4909 24.5161 46.3529L25.8876 43.9772C25.9275 43.9082 25.9534 43.8322 25.9638 43.7532C25.9742 43.6743 25.969 43.5941 25.9484 43.5172C25.9278 43.4403 25.8922 43.3682 25.8437 43.3051C25.7952 43.242 25.7348 43.189 25.6658 43.1493Z" fill="white"/>
<path id="Vector_6" d="M31.881 44.8147C31.7202 44.8147 31.5661 44.8786 31.4524 44.9922C31.3388 45.1059 31.2749 45.26 31.2749 45.4208V48.1644C31.2749 48.3251 31.3388 48.4793 31.4524 48.5929C31.5661 48.7066 31.7202 48.7704 31.881 48.7704C32.0417 48.7704 32.1958 48.7066 32.3095 48.5929C32.4232 48.4793 32.487 48.3251 32.487 48.1644V45.4208C32.487 45.26 32.4232 45.1059 32.3095 44.9922C32.1958 44.8786 32.0417 44.8147 31.881 44.8147Z" fill="white"/>
<path id="Vector_7" d="M38.9237 43.3711C38.8842 43.3016 38.8313 43.2407 38.7681 43.1917C38.705 43.1427 38.6327 43.1067 38.5556 43.0858C38.4785 43.0648 38.398 43.0594 38.3187 43.0697C38.2394 43.08 38.163 43.1058 38.0938 43.1458C38.0246 43.1858 37.9639 43.239 37.9154 43.3025C37.8668 43.366 37.8313 43.4385 37.8109 43.5158C37.7905 43.593 37.7855 43.6736 37.7964 43.7528C37.8072 43.8319 37.8336 43.9082 37.874 43.9772L39.2455 46.3529C39.285 46.4224 39.3378 46.4833 39.401 46.5323C39.4642 46.5813 39.5364 46.6173 39.6135 46.6382C39.6907 46.6592 39.7712 46.6646 39.8505 46.6543C39.9297 46.644 40.0062 46.6182 40.0754 46.5782C40.1446 46.5382 40.2052 46.485 40.2538 46.4215C40.3023 46.358 40.3378 46.2855 40.3583 46.2083C40.3787 46.131 40.3836 46.0504 40.3728 45.9712C40.362 45.8921 40.3356 45.8158 40.2952 45.7468L38.9237 43.3711Z" fill="white"/>
<path id="Vector_8" d="M38.096 21.6211C38.1648 21.6611 38.2409 21.6871 38.3199 21.6975C38.3988 21.708 38.479 21.7028 38.556 21.6822C38.6329 21.6616 38.705 21.626 38.7681 21.5774C38.8312 21.5289 38.8841 21.4684 38.9238 21.3993L40.2953 19.0236C40.3744 18.8845 40.3953 18.7197 40.3533 18.5653C40.3114 18.4108 40.2101 18.2792 40.0715 18.1992C39.9329 18.1192 39.7683 18.0972 39.6136 18.1381C39.4588 18.1791 39.3266 18.2795 39.2456 18.4176L37.8741 20.7933C37.8343 20.8622 37.8084 20.9383 37.7979 21.0172C37.7875 21.0961 37.7927 21.1763 37.8134 21.2532C37.834 21.3301 37.8695 21.4022 37.918 21.4653C37.9665 21.5285 38.027 21.5814 38.096 21.6211Z" fill="white"/>
</g>
<rect x="0.5" y="0.5" width="63" height="63" rx="7.5" stroke="white" stroke-opacity="0.2"/>
</g>
</svg>
